<?xml version="1.0"?>
<svg xmlns="http://www.w3.org/2000/svg" xmlns:xlink="http://www.w3.org/1999/xlink" version="1.1" id="Capa_1" x="0px" y="0px" viewBox="0 0 512 512" style="enable-background:new 0 0 512 512;" xml:space="preserve" width="512px" height="512px" class=""><g><g>
	<path d="M213.254,150.588c-98.396,0-180,80.191-180,180.706c0,99.641,80.748,180.706,180,180.706s180-81.065,180-180.706   C393.254,232.11,312.863,150.588,213.254,150.588z" data-original="#000000" class="active-path" data-old_color="#ffffff" fill="#ffffff"/>
	<g>
		<path d="M407.254,210.824c-8.284,0-15-6.742-15-15.059v-30.118c0-8.317,6.716-15.059,15-15.059s15,6.742,15,15.059v30.118    C422.254,204.081,415.539,210.824,407.254,210.824z" data-original="#000000" class="active-path" data-old_color="#ffffff" fill="#ffffff"/>
	</g>
	<g>
		<path d="M339.273,169.947c-5.325-6.371-4.497-15.87,1.849-21.216l22.981-19.359c6.346-5.344,15.808-4.515,21.132,1.857    c5.325,6.371,4.497,15.87-1.849,21.216l-22.981,19.359C354.059,177.149,344.597,176.318,339.273,169.947z" data-original="#000000" class="active-path" data-old_color="#ffffff" fill="#ffffff"/>
	</g>
	<g>
		<path d="M454.104,171.804l-22.981-19.359c-6.346-5.346-7.174-14.845-1.849-21.216c5.325-6.373,14.786-7.201,21.132-1.857    l22.981,19.359c6.346,5.346,7.174,14.845,1.849,21.216C469.914,176.315,460.453,177.151,454.104,171.804z" data-original="#000000" class="active-path" data-old_color="#ffffff" fill="#ffffff"/>
	</g>
	<g>
		<path d="M287.254,90.353c-3.957,0-145.982,0-150,0c-8.284,0-15,6.742-15,15.059v35.899c55.226-26.769,121.621-28.478,180-0.94    v-34.959C302.254,97.095,295.539,90.353,287.254,90.353z" data-original="#000000" class="active-path" data-old_color="#ffffff" fill="#ffffff"/>
		<path d="M347.254,0h-74c-36.219,0-66.522,25.909-73.491,60.235h31.071c6.192-17.527,22.865-30.118,42.42-30.118h74    c24.813,0,45,20.266,45,45.176v30.118c0,8.317,6.716,15.059,15,15.059s15-6.742,15-15.059V75.294    C422.254,33.776,388.609,0,347.254,0z" data-original="#000000" class="active-path" data-old_color="#ffffff" fill="#ffffff"/>
	</g>
</g></g> </svg>
